<svg width="189" height="18" viewBox="0 0 189 18" fill="none" xmlns="http://www.w3.org/2000/svg">
<path d="M6.398 16.124C5.114 16.124 4.022 15.908 3.122 15.476C2.222 15.044 1.52 14.42 1.016 13.604C0.512 12.776 0.2 11.786 0.08 10.634C0.0680001 10.466 0.0560001 10.244 0.044 9.968C0.0320001 9.692 0.0260001 9.398 0.0260001 9.086C0.0260001 8.774 0.0320001 8.48 0.044 8.204C0.0560001 7.928 0.0680001 7.712 0.08 7.556C0.164 6.74 0.362 5.99 0.674 5.306C0.986 4.622 1.4 4.04 1.916 3.56C2.444 3.068 3.074 2.69 3.806 2.426C4.538 2.162 5.378 2.03 6.326 2.03C7.418 2.03 8.36 2.156 9.152 2.408C9.956 2.66 10.622 3.026 11.15 3.506C11.69 3.986 12.098 4.568 12.374 5.252C12.65 5.936 12.812 6.704 12.86 7.556C12.884 7.868 12.896 8.18 12.896 8.492C12.896 8.804 12.89 9.092 12.878 9.356C12.878 9.608 12.872 9.794 12.86 9.914C12.824 10.502 12.704 10.994 12.5 11.39C12.296 11.786 12.014 12.086 11.654 12.29C11.306 12.482 10.892 12.578 10.412 12.578C10.016 12.578 9.68 12.512 9.404 12.38C9.128 12.248 8.912 12.104 8.756 11.948C8.6 11.78 8.486 11.648 8.414 11.552C8.318 11.708 8.18 11.882 8 12.074C7.832 12.266 7.598 12.428 7.298 12.56C6.998 12.692 6.608 12.758 6.128 12.758C5.24 12.758 4.532 12.44 4.004 11.804C3.476 11.168 3.212 10.262 3.212 9.086C3.212 7.91 3.476 7.004 4.004 6.368C4.532 5.72 5.24 5.396 6.128 5.396C6.62 5.396 7.004 5.486 7.28 5.666C7.568 5.846 7.796 6.044 7.964 6.26V5.954C7.964 5.834 8 5.738 8.072 5.666C8.156 5.582 8.258 5.54 8.378 5.54H8.864C8.984 5.54 9.08 5.582 9.152 5.666C9.236 5.738 9.278 5.834 9.278 5.954V9.788C9.278 10.304 9.386 10.688 9.602 10.94C9.818 11.192 10.088 11.318 10.412 11.318C10.736 11.318 10.976 11.228 11.132 11.048C11.3 10.868 11.408 10.658 11.456 10.418C11.516 10.166 11.546 9.956 11.546 9.788C11.558 9.608 11.57 9.32 11.582 8.924C11.594 8.528 11.582 8.102 11.546 7.646C11.474 6.698 11.252 5.9 10.88 5.252C10.52 4.604 9.968 4.112 9.224 3.776C8.492 3.44 7.526 3.272 6.326 3.272C5.342 3.272 4.502 3.452 3.806 3.812C3.11 4.16 2.558 4.658 2.15 5.306C1.754 5.954 1.502 6.734 1.394 7.646C1.37 7.85 1.352 8.138 1.34 8.51C1.34 8.882 1.34 9.26 1.34 9.644C1.352 10.016 1.37 10.316 1.394 10.544C1.538 11.924 2.03 12.992 2.87 13.748C3.722 14.492 4.898 14.864 6.398 14.864C7.262 14.864 7.946 14.792 8.45 14.648C8.954 14.516 9.338 14.354 9.602 14.162C9.878 13.982 10.1 13.832 10.268 13.712C10.328 13.664 10.394 13.616 10.466 13.568C10.538 13.508 10.628 13.478 10.736 13.478H11.456C11.564 13.478 11.654 13.52 11.726 13.604C11.81 13.676 11.852 13.766 11.852 13.874C11.852 13.922 11.84 13.964 11.816 14C11.804 14.048 11.78 14.09 11.744 14.126C11.432 14.474 11.042 14.798 10.574 15.098C10.106 15.41 9.53 15.656 8.846 15.836C8.174 16.028 7.358 16.124 6.398 16.124ZM6.236 11.498C6.872 11.498 7.316 11.282 7.568 10.85C7.832 10.406 7.964 9.818 7.964 9.086C7.964 8.354 7.832 7.766 7.568 7.322C7.316 6.878 6.872 6.656 6.236 6.656C5.624 6.656 5.186 6.878 4.922 7.322C4.658 7.766 4.526 8.354 4.526 9.086C4.526 9.518 4.58 9.92 4.688 10.292C4.808 10.652 4.994 10.946 5.246 11.174C5.498 11.39 5.828 11.498 6.236 11.498ZM22.988 14C22.316 14 21.77 13.874 21.35 13.622C20.93 13.358 20.624 12.992 20.432 12.524C20.24 12.044 20.144 11.48 20.144 10.832V6.08H18.74C18.62 6.08 18.518 6.044 18.434 5.972C18.362 5.888 18.326 5.786 18.326 5.666V5.054C18.326 4.934 18.362 4.838 18.434 4.766C18.518 4.682 18.62 4.64 18.74 4.64H20.144V1.634C20.144 1.514 20.18 1.418 20.252 1.346C20.336 1.262 20.438 1.22 20.558 1.22H21.404C21.524 1.22 21.62 1.262 21.692 1.346C21.776 1.418 21.818 1.514 21.818 1.634V4.64H24.05C24.17 4.64 24.266 4.682 24.338 4.766C24.422 4.838 24.464 4.934 24.464 5.054V5.666C24.464 5.786 24.422 5.888 24.338 5.972C24.266 6.044 24.17 6.08 24.05 6.08H21.818V10.706C21.818 11.27 21.914 11.714 22.106 12.038C22.298 12.362 22.64 12.524 23.132 12.524H24.23C24.35 12.524 24.446 12.566 24.518 12.65C24.602 12.722 24.644 12.818 24.644 12.938V13.586C24.644 13.706 24.602 13.808 24.518 13.892C24.446 13.964 24.35 14 24.23 14H22.988ZM26.7792 14C26.6592 14 26.5572 13.964 26.4732 13.892C26.4012 13.808 26.3652 13.706 26.3652 13.586V5.054C26.3652 4.934 26.4012 4.838 26.4732 4.766C26.5572 4.682 26.6592 4.64 26.7792 4.64H27.6252C27.7452 4.64 27.8412 4.682 27.9132 4.766C27.9972 4.838 28.0392 4.934 28.0392 5.054V5.846C28.3512 5.438 28.7412 5.108 29.2092 4.856C29.6892 4.592 30.3012 4.46 31.0452 4.46C31.8252 4.46 32.4852 4.634 33.0252 4.982C33.5772 5.318 33.9912 5.792 34.2672 6.404C34.5432 7.004 34.6812 7.706 34.6812 8.51V13.586C34.6812 13.706 34.6452 13.808 34.5732 13.892C34.5012 13.964 34.4052 14 34.2852 14H33.3852C33.2652 14 33.1632 13.964 33.0792 13.892C33.0072 13.808 32.9712 13.706 32.9712 13.586V8.6C32.9712 7.76 32.7672 7.106 32.3592 6.638C31.9512 6.158 31.3512 5.918 30.5592 5.918C29.8152 5.918 29.2152 6.158 28.7592 6.638C28.3152 7.106 28.0932 7.76 28.0932 8.6V13.586C28.0932 13.706 28.0512 13.808 27.9672 13.892C27.8952 13.964 27.7992 14 27.6792 14H26.7792ZM38.4906 14C38.3706 14 38.2686 13.964 38.1846 13.892C38.1126 13.808 38.0766 13.706 38.0766 13.586V6.08H36.5466C36.4266 6.08 36.3246 6.044 36.2406 5.972C36.1686 5.888 36.1326 5.786 36.1326 5.666V5.054C36.1326 4.934 36.1686 4.838 36.2406 4.766C36.3246 4.682 36.4266 4.64 36.5466 4.64H38.0766V3.74C38.0766 3.128 38.1786 2.594 38.3826 2.138C38.5866 1.67 38.9106 1.31 39.3546 1.058C39.8106 0.806 40.4166 0.68 41.1726 0.68H42.2526C42.3726 0.68 42.4686 0.722 42.5406 0.805999C42.6126 0.877999 42.6486 0.973999 42.6486 1.094V1.706C42.6486 1.826 42.6126 1.928 42.5406 2.012C42.4686 2.084 42.3726 2.12 42.2526 2.12H41.2086C40.6446 2.12 40.2606 2.27 40.0566 2.57C39.8526 2.858 39.7506 3.278 39.7506 3.83V4.64H42.0726C42.1926 4.64 42.2886 4.682 42.3606 4.766C42.4326 4.838 42.4686 4.934 42.4686 5.054V5.666C42.4686 5.786 42.4326 5.888 42.3606 5.972C42.2886 6.044 42.1926 6.08 42.0726 6.08H39.7506V13.586C39.7506 13.706 39.7086 13.808 39.6246 13.892C39.5526 13.964 39.4566 14 39.3366 14H38.4906ZM47.7204 14C47.0484 14 46.5024 13.874 46.0824 13.622C45.6624 13.358 45.3564 12.992 45.1644 12.524C44.9724 12.044 44.8764 11.48 44.8764 10.832V6.08H43.4724C43.3524 6.08 43.2504 6.044 43.1664 5.972C43.0944 5.888 43.0584 5.786 43.0584 5.666V5.054C43.0584 4.934 43.0944 4.838 43.1664 4.766C43.2504 4.682 43.3524 4.64 43.4724 4.64H44.8764V1.634C44.8764 1.514 44.9124 1.418 44.9844 1.346C45.0684 1.262 45.1704 1.22 45.2904 1.22H46.1364C46.2564 1.22 46.3524 1.262 46.4244 1.346C46.5084 1.418 46.5504 1.514 46.5504 1.634V4.64H48.7824C48.9024 4.64 48.9984 4.682 49.0704 4.766C49.1544 4.838 49.1964 4.934 49.1964 5.054V5.666C49.1964 5.786 49.1544 5.888 49.0704 5.972C48.9984 6.044 48.9024 6.08 48.7824 6.08H46.5504V10.706C46.5504 11.27 46.6464 11.714 46.8384 12.038C47.0304 12.362 47.3724 12.524 47.8644 12.524H48.9624C49.0824 12.524 49.1784 12.566 49.2504 12.65C49.3344 12.722 49.3764 12.818 49.3764 12.938V13.586C49.3764 13.706 49.3344 13.808 49.2504 13.892C49.1784 13.964 49.0824 14 48.9624 14H47.7204ZM51.3856 14C51.2656 14 51.1636 13.964 51.0796 13.892C51.0076 13.808 50.9716 13.706 50.9716 13.586V12.29C50.9716 12.17 51.0076 12.074 51.0796 12.002C51.1636 11.918 51.2656 11.876 51.3856 11.876H52.6816C52.8016 11.876 52.8976 11.918 52.9696 12.002C53.0536 12.074 53.0956 12.17 53.0956 12.29V13.586C53.0956 13.706 53.0536 13.808 52.9696 13.892C52.8976 13.964 52.8016 14 52.6816 14H51.3856ZM56.0468 14C55.9268 14 55.8248 13.964 55.7408 13.892C55.6688 13.808 55.6328 13.706 55.6328 13.586V5.072C55.6328 4.952 55.6688 4.85 55.7408 4.766C55.8248 4.682 55.9268 4.64 56.0468 4.64H56.8748C56.9948 4.64 57.0968 4.682 57.1808 4.766C57.2648 4.85 57.3068 4.952 57.3068 5.072V5.864C57.5468 5.456 57.8768 5.15 58.2968 4.946C58.7168 4.742 59.2208 4.64 59.8088 4.64H60.5288C60.6488 4.64 60.7448 4.682 60.8168 4.766C60.8888 4.838 60.9248 4.934 60.9248 5.054V5.792C60.9248 5.912 60.8888 6.008 60.8168 6.08C60.7448 6.152 60.6488 6.188 60.5288 6.188H59.4488C58.8008 6.188 58.2908 6.38 57.9188 6.764C57.5468 7.136 57.3608 7.646 57.3608 8.294V13.586C57.3608 13.706 57.3188 13.808 57.2348 13.892C57.1508 13.964 57.0488 14 56.9288 14H56.0468ZM65.9627 14.18C65.1947 14.18 64.5407 14.012 64.0007 13.676C63.4727 13.328 63.0707 12.848 62.7947 12.236C62.5187 11.624 62.3807 10.922 62.3807 10.13V5.054C62.3807 4.934 62.4167 4.838 62.4887 4.766C62.5727 4.682 62.6747 4.64 62.7947 4.64H63.6947C63.8147 4.64 63.9107 4.682 63.9827 4.766C64.0667 4.838 64.1087 4.934 64.1087 5.054V10.04C64.1087 11.828 64.8887 12.722 66.4487 12.722C67.1927 12.722 67.7867 12.488 68.2307 12.02C68.6867 11.54 68.9147 10.88 68.9147 10.04V5.054C68.9147 4.934 68.9507 4.838 69.0227 4.766C69.1067 4.682 69.2087 4.64 69.3287 4.64H70.2107C70.3427 4.64 70.4447 4.682 70.5167 4.766C70.5887 4.838 70.6247 4.934 70.6247 5.054V13.586C70.6247 13.706 70.5887 13.808 70.5167 13.892C70.4447 13.964 70.3427 14 70.2107 14H69.3827C69.2627 14 69.1607 13.964 69.0767 13.892C69.0047 13.808 68.9687 13.706 68.9687 13.586V12.794C68.6447 13.214 68.2487 13.55 67.7807 13.802C67.3247 14.054 66.7187 14.18 65.9627 14.18ZM82.4809 14.18C81.3769 14.18 80.4589 13.976 79.7269 13.568C79.0069 13.16 78.4609 12.59 78.0889 11.858C77.7169 11.126 77.5129 10.274 77.4769 9.302C77.4649 8.81 77.4589 8.282 77.4589 7.718C77.4589 7.154 77.4649 6.614 77.4769 6.098C77.5129 5.126 77.7169 4.274 78.0889 3.542C78.4609 2.81 79.0069 2.24 79.7269 1.832C80.4589 1.424 81.3769 1.22 82.4809 1.22C83.3089 1.22 84.0349 1.334 84.6589 1.562C85.2829 1.79 85.7989 2.096 86.2069 2.48C86.6269 2.864 86.9449 3.296 87.1609 3.776C87.3769 4.244 87.4969 4.73 87.5209 5.234C87.5329 5.342 87.4969 5.432 87.4129 5.504C87.3409 5.576 87.2509 5.612 87.1429 5.612H86.1529C86.0449 5.612 85.9489 5.582 85.8649 5.522C85.7929 5.462 85.7389 5.354 85.7029 5.198C85.4989 4.262 85.1149 3.62 84.5509 3.272C83.9989 2.924 83.3029 2.75 82.4629 2.75C81.5029 2.75 80.7409 3.026 80.1769 3.578C79.6129 4.118 79.3069 4.988 79.2589 6.188C79.2229 7.172 79.2229 8.18 79.2589 9.212C79.3069 10.412 79.6129 11.288 80.1769 11.84C80.7409 12.38 81.5029 12.65 82.4629 12.65C83.3029 12.65 83.9989 12.476 84.5509 12.128C85.1149 11.78 85.4989 11.138 85.7029 10.202C85.7389 10.046 85.7929 9.938 85.8649 9.878C85.9489 9.818 86.0449 9.788 86.1529 9.788H87.1429C87.2509 9.788 87.3409 9.824 87.4129 9.896C87.4969 9.968 87.5329 10.058 87.5209 10.166C87.4969 10.67 87.3769 11.162 87.1609 11.642C86.9449 12.11 86.6269 12.536 86.2069 12.92C85.7989 13.304 85.2829 13.61 84.6589 13.838C84.0349 14.066 83.3089 14.18 82.4809 14.18ZM93.5332 14.18C92.6212 14.18 91.8592 14.006 91.2472 13.658C90.6352 13.31 90.1672 12.83 89.8432 12.218C89.5192 11.594 89.3392 10.886 89.3032 10.094C89.2912 9.89 89.2852 9.632 89.2852 9.32C89.2852 8.996 89.2912 8.738 89.3032 8.546C89.3392 7.742 89.5192 7.034 89.8432 6.422C90.1792 5.81 90.6532 5.33 91.2652 4.982C91.8772 4.634 92.6332 4.46 93.5332 4.46C94.4332 4.46 95.1892 4.634 95.8012 4.982C96.4132 5.33 96.8812 5.81 97.2052 6.422C97.5412 7.034 97.7272 7.742 97.7632 8.546C97.7752 8.738 97.7812 8.996 97.7812 9.32C97.7812 9.632 97.7752 9.89 97.7632 10.094C97.7272 10.886 97.5472 11.594 97.2232 12.218C96.8992 12.83 96.4312 13.31 95.8192 13.658C95.2072 14.006 94.4452 14.18 93.5332 14.18ZM93.5332 12.794C94.2772 12.794 94.8712 12.56 95.3152 12.092C95.7592 11.612 95.9992 10.916 96.0352 10.004C96.0472 9.824 96.0532 9.596 96.0532 9.32C96.0532 9.044 96.0472 8.816 96.0352 8.636C95.9992 7.724 95.7592 7.034 95.3152 6.566C94.8712 6.086 94.2772 5.846 93.5332 5.846C92.7892 5.846 92.1892 6.086 91.7332 6.566C91.2892 7.034 91.0552 7.724 91.0312 8.636C91.0192 8.816 91.0132 9.044 91.0132 9.32C91.0132 9.596 91.0192 9.824 91.0312 10.004C91.0552 10.916 91.2892 11.612 91.7332 12.092C92.1892 12.56 92.7892 12.794 93.5332 12.794ZM100.449 14C100.329 14 100.227 13.964 100.143 13.892C100.071 13.808 100.035 13.706 100.035 13.586V5.054C100.035 4.934 100.071 4.838 100.143 4.766C100.227 4.682 100.329 4.64 100.449 4.64H101.259C101.379 4.64 101.475 4.682 101.547 4.766C101.631 4.838 101.673 4.934 101.673 5.054V5.684C101.949 5.312 102.297 5.018 102.717 4.802C103.137 4.574 103.641 4.46 104.229 4.46C105.585 4.448 106.545 5 107.109 6.116C107.385 5.612 107.787 5.21 108.315 4.91C108.843 4.61 109.443 4.46 110.115 4.46C110.739 4.46 111.303 4.604 111.807 4.892C112.323 5.18 112.725 5.618 113.013 6.206C113.313 6.782 113.463 7.508 113.463 8.384V13.586C113.463 13.706 113.421 13.808 113.337 13.892C113.265 13.964 113.169 14 113.049 14H112.203C112.083 14 111.981 13.964 111.897 13.892C111.825 13.808 111.789 13.706 111.789 13.586V8.546C111.789 7.874 111.693 7.346 111.501 6.962C111.309 6.578 111.051 6.308 110.727 6.152C110.403 5.996 110.049 5.918 109.665 5.918C109.353 5.918 109.035 5.996 108.711 6.152C108.387 6.308 108.117 6.578 107.901 6.962C107.697 7.346 107.595 7.874 107.595 8.546V13.586C107.595 13.706 107.553 13.808 107.469 13.892C107.397 13.964 107.301 14 107.181 14H106.335C106.215 14 106.113 13.964 106.029 13.892C105.957 13.808 105.921 13.706 105.921 13.586V8.546C105.921 7.874 105.819 7.346 105.615 6.962C105.411 6.578 105.147 6.308 104.823 6.152C104.499 5.996 104.157 5.918 103.797 5.918C103.485 5.918 103.167 5.996 102.843 6.152C102.519 6.308 102.249 6.578 102.033 6.962C101.829 7.346 101.727 7.868 101.727 8.528V13.586C101.727 13.706 101.685 13.808 101.601 13.892C101.529 13.964 101.433 14 101.313 14H100.449ZM116.463 17.42C116.343 17.42 116.241 17.378 116.157 17.294C116.085 17.222 116.049 17.126 116.049 17.006V5.054C116.049 4.934 116.085 4.838 116.157 4.766C116.241 4.682 116.343 4.64 116.463 4.64H117.291C117.411 4.64 117.507 4.682 117.579 4.766C117.663 4.838 117.705 4.934 117.705 5.054V5.846C117.993 5.45 118.377 5.12 118.857 4.856C119.337 4.592 119.937 4.46 120.657 4.46C121.329 4.46 121.899 4.574 122.367 4.802C122.847 5.03 123.237 5.342 123.537 5.738C123.849 6.134 124.083 6.584 124.239 7.088C124.395 7.592 124.479 8.132 124.491 8.708C124.503 8.9 124.509 9.104 124.509 9.32C124.509 9.536 124.503 9.74 124.491 9.932C124.479 10.496 124.395 11.036 124.239 11.552C124.083 12.056 123.849 12.506 123.537 12.902C123.237 13.286 122.847 13.598 122.367 13.838C121.899 14.066 121.329 14.18 120.657 14.18C119.961 14.18 119.373 14.054 118.893 13.802C118.425 13.538 118.041 13.214 117.741 12.83V17.006C117.741 17.126 117.705 17.222 117.633 17.294C117.561 17.378 117.459 17.42 117.327 17.42H116.463ZM120.279 12.722C120.903 12.722 121.389 12.59 121.737 12.326C122.097 12.05 122.355 11.696 122.511 11.264C122.667 10.82 122.757 10.346 122.781 9.842C122.793 9.494 122.793 9.146 122.781 8.798C122.757 8.294 122.667 7.826 122.511 7.394C122.355 6.95 122.097 6.596 121.737 6.332C121.389 6.056 120.903 5.918 120.279 5.918C119.691 5.918 119.211 6.056 118.839 6.332C118.479 6.608 118.209 6.962 118.029 7.394C117.861 7.814 117.765 8.246 117.741 8.69C117.729 8.882 117.723 9.11 117.723 9.374C117.723 9.638 117.729 9.872 117.741 10.076C117.753 10.496 117.849 10.91 118.029 11.318C118.221 11.726 118.503 12.062 118.875 12.326C119.247 12.59 119.715 12.722 120.279 12.722ZM129.364 14.18C128.764 14.18 128.218 14.06 127.726 13.82C127.234 13.58 126.838 13.256 126.538 12.848C126.238 12.44 126.088 11.978 126.088 11.462C126.088 10.634 126.424 9.974 127.096 9.482C127.768 8.99 128.644 8.666 129.724 8.51L132.406 8.132V7.61C132.406 7.034 132.238 6.584 131.902 6.26C131.578 5.936 131.044 5.774 130.3 5.774C129.76 5.774 129.322 5.882 128.986 6.098C128.662 6.314 128.434 6.59 128.302 6.926C128.23 7.106 128.104 7.196 127.924 7.196H127.114C126.982 7.196 126.88 7.16 126.808 7.088C126.748 7.004 126.718 6.908 126.718 6.8C126.718 6.62 126.784 6.398 126.916 6.134C127.06 5.87 127.276 5.612 127.564 5.36C127.852 5.108 128.218 4.898 128.662 4.73C129.118 4.55 129.67 4.46 130.318 4.46C131.038 4.46 131.644 4.556 132.136 4.748C132.628 4.928 133.012 5.174 133.288 5.486C133.576 5.798 133.78 6.152 133.9 6.548C134.032 6.944 134.098 7.346 134.098 7.754V13.586C134.098 13.706 134.056 13.808 133.972 13.892C133.9 13.964 133.804 14 133.684 14H132.856C132.724 14 132.622 13.964 132.55 13.892C132.478 13.808 132.442 13.706 132.442 13.586V12.812C132.286 13.028 132.076 13.244 131.812 13.46C131.548 13.664 131.218 13.838 130.822 13.982C130.426 14.114 129.94 14.18 129.364 14.18ZM129.742 12.83C130.234 12.83 130.684 12.728 131.092 12.524C131.5 12.308 131.818 11.978 132.046 11.534C132.286 11.09 132.406 10.532 132.406 9.86V9.356L130.318 9.662C129.466 9.782 128.824 9.986 128.392 10.274C127.96 10.55 127.744 10.904 127.744 11.336C127.744 11.672 127.84 11.954 128.032 12.182C128.236 12.398 128.488 12.56 128.788 12.668C129.1 12.776 129.418 12.83 129.742 12.83ZM137.1 14C136.98 14 136.878 13.964 136.794 13.892C136.722 13.808 136.686 13.706 136.686 13.586V5.054C136.686 4.934 136.722 4.838 136.794 4.766C136.878 4.682 136.98 4.64 137.1 4.64H137.946C138.066 4.64 138.162 4.682 138.234 4.766C138.318 4.838 138.36 4.934 138.36 5.054V5.846C138.672 5.438 139.062 5.108 139.53 4.856C140.01 4.592 140.622 4.46 141.366 4.46C142.146 4.46 142.806 4.634 143.346 4.982C143.898 5.318 144.312 5.792 144.588 6.404C144.864 7.004 145.002 7.706 145.002 8.51V13.586C145.002 13.706 144.966 13.808 144.894 13.892C144.822 13.964 144.726 14 144.606 14H143.706C143.586 14 143.484 13.964 143.4 13.892C143.328 13.808 143.292 13.706 143.292 13.586V8.6C143.292 7.76 143.088 7.106 142.68 6.638C142.272 6.158 141.672 5.918 140.88 5.918C140.136 5.918 139.536 6.158 139.08 6.638C138.636 7.106 138.414 7.76 138.414 8.6V13.586C138.414 13.706 138.372 13.808 138.288 13.892C138.216 13.964 138.12 14 138 14H137.1ZM148.958 17.42C148.862 17.42 148.778 17.384 148.706 17.312C148.634 17.24 148.598 17.156 148.598 17.06C148.598 17.012 148.604 16.964 148.616 16.916C148.628 16.868 148.652 16.808 148.688 16.736L150.074 13.442L146.636 5.324C146.576 5.18 146.546 5.078 146.546 5.018C146.546 4.91 146.582 4.82 146.654 4.748C146.726 4.676 146.816 4.64 146.924 4.64H147.806C147.926 4.64 148.022 4.67 148.094 4.73C148.166 4.79 148.214 4.862 148.238 4.946L150.974 11.498L153.782 4.946C153.818 4.862 153.866 4.79 153.926 4.73C153.998 4.67 154.1 4.64 154.232 4.64H155.078C155.186 4.64 155.276 4.676 155.348 4.748C155.42 4.82 155.456 4.904 155.456 5C155.456 5.06 155.426 5.168 155.366 5.324L150.254 17.114C150.218 17.198 150.164 17.27 150.092 17.33C150.032 17.39 149.936 17.42 149.804 17.42H148.958ZM156.089 15.35C155.993 15.35 155.915 15.314 155.855 15.242C155.807 15.17 155.789 15.08 155.801 14.972L156.215 12.398C156.239 12.254 156.287 12.134 156.359 12.038C156.443 11.93 156.563 11.876 156.719 11.876H157.925C158.009 11.876 158.075 11.906 158.123 11.966C158.183 12.026 158.213 12.098 158.213 12.182C158.213 12.278 158.189 12.374 158.141 12.47L157.205 14.936C157.157 15.056 157.091 15.152 157.007 15.224C156.935 15.308 156.827 15.35 156.683 15.35H156.089ZM165.757 14C165.625 14 165.523 13.964 165.451 13.892C165.379 13.808 165.343 13.706 165.343 13.586V1.814C165.343 1.694 165.379 1.598 165.451 1.526C165.523 1.442 165.625 1.4 165.757 1.4H166.711C166.831 1.4 166.927 1.442 166.999 1.526C167.083 1.598 167.125 1.694 167.125 1.814V13.586C167.125 13.706 167.083 13.808 166.999 13.892C166.927 13.964 166.831 14 166.711 14H165.757ZM170.445 14C170.325 14 170.223 13.964 170.139 13.892C170.067 13.808 170.031 13.706 170.031 13.586V5.054C170.031 4.934 170.067 4.838 170.139 4.766C170.223 4.682 170.325 4.64 170.445 4.64H171.291C171.411 4.64 171.507 4.682 171.579 4.766C171.663 4.838 171.705 4.934 171.705 5.054V5.846C172.017 5.438 172.407 5.108 172.875 4.856C173.355 4.592 173.967 4.46 174.711 4.46C175.491 4.46 176.151 4.634 176.691 4.982C177.243 5.318 177.657 5.792 177.933 6.404C178.209 7.004 178.347 7.706 178.347 8.51V13.586C178.347 13.706 178.311 13.808 178.239 13.892C178.167 13.964 178.071 14 177.951 14H177.051C176.931 14 176.829 13.964 176.745 13.892C176.673 13.808 176.637 13.706 176.637 13.586V8.6C176.637 7.76 176.433 7.106 176.025 6.638C175.617 6.158 175.017 5.918 174.225 5.918C173.481 5.918 172.881 6.158 172.425 6.638C171.981 7.106 171.759 7.76 171.759 8.6V13.586C171.759 13.706 171.717 13.808 171.633 13.892C171.561 13.964 171.465 14 171.345 14H170.445ZM184.727 14.18C183.875 14.18 183.137 14.018 182.513 13.694C181.901 13.358 181.427 12.884 181.091 12.272C180.755 11.648 180.575 10.904 180.551 10.04C180.539 9.86 180.533 9.62 180.533 9.32C180.533 9.02 180.539 8.78 180.551 8.6C180.575 7.736 180.755 6.998 181.091 6.386C181.427 5.762 181.901 5.288 182.513 4.964C183.137 4.628 183.875 4.46 184.727 4.46C185.423 4.46 186.017 4.556 186.509 4.748C187.013 4.94 187.427 5.186 187.751 5.486C188.075 5.786 188.315 6.11 188.471 6.458C188.639 6.806 188.729 7.136 188.741 7.448C188.753 7.568 188.717 7.664 188.633 7.736C188.549 7.808 188.447 7.844 188.327 7.844H187.463C187.343 7.844 187.253 7.82 187.193 7.772C187.133 7.712 187.073 7.616 187.013 7.484C186.797 6.896 186.503 6.482 186.131 6.242C185.759 6.002 185.297 5.882 184.745 5.882C184.025 5.882 183.437 6.104 182.981 6.548C182.537 6.992 182.297 7.706 182.261 8.69C182.249 9.122 182.249 9.542 182.261 9.95C182.297 10.946 182.537 11.666 182.981 12.11C183.437 12.542 184.025 12.758 184.745 12.758C185.297 12.758 185.759 12.638 186.131 12.398C186.503 12.158 186.797 11.744 187.013 11.156C187.073 11.024 187.133 10.934 187.193 10.886C187.253 10.826 187.343 10.796 187.463 10.796H188.327C188.447 10.796 188.549 10.832 188.633 10.904C188.717 10.976 188.753 11.072 188.741 11.192C188.729 11.444 188.675 11.702 188.579 11.966C188.483 12.23 188.327 12.5 188.111 12.776C187.907 13.04 187.649 13.28 187.337 13.496C187.025 13.7 186.647 13.868 186.203 14C185.771 14.12 185.279 14.18 184.727 14.18Z" fill="black" fill-opacity="0.5"/>
</svg>
